<svg width="160" height="31" viewBox="0 0 160 31" fill="none" xmlns="http://www.w3.org/2000/svg">
<path d="M4.12361 11.0152C4 11.6494 4 12.4305 4 13.7388V16.886C4 18.5092 4 19.3208 4.23607 20.0474C4.44495 20.6902 4.78662 21.282 5.23892 21.7844C5.7501 22.3521 6.45297 22.7579 7.85872 23.5695L10.5842 25.1431C11.8283 25.8614 12.5219 26.2618 13.1829 26.4545V16.7441C13.1829 16.2587 12.9178 15.812 12.4917 15.5796L4.12361 11.0152Z" fill="#202328"/>
<path d="M4.12361 11.0152C4 11.6494 4 12.4305 4 13.7388V16.886C4 18.5092 4 19.3208 4.23607 20.0474C4.44495 20.6902 4.78662 21.282 5.23892 21.7844C5.7501 22.3521 6.45297 22.7579 7.85872 23.5695L10.5842 25.1431C11.8283 25.8614 12.5219 26.2618 13.1829 26.4545V16.7441C13.1829 16.2587 12.9178 15.812 12.4917 15.5796L4.12361 11.0152Z" fill="url(#paint0_linear_5970_3325)" fill-opacity="0.3"/>
<path d="M4.12361 11.0152C4 11.6494 4 12.4305 4 13.7388V16.886C4 18.5092 4 19.3208 4.23607 20.0474C4.44495 20.6902 4.78662 21.282 5.23892 21.7844C5.7501 22.3521 6.45297 22.7579 7.85872 23.5695L10.5842 25.1431C11.8283 25.8614 12.5219 26.2618 13.1829 26.4545V16.7441C13.1829 16.2587 12.9178 15.812 12.4917 15.5796L4.12361 11.0152Z" fill="#252525"/>
<path d="M26.9113 12.4414V17.5045C26.9113 18.2046 27.2155 18.8701 27.7448 19.3282L31.3889 22.4817C31.6022 22.6622 31.8236 22.8098 32.0532 22.9246C32.291 23.0312 32.5207 23.0845 32.7421 23.0845C33.2177 23.0845 33.5991 22.9287 33.8861 22.6171C34.1813 22.2972 34.3289 21.8831 34.3289 21.3746V8.58126C34.3289 8.07281 34.1813 7.66276 33.8861 7.35113C33.5991 7.0313 33.2177 6.87138 32.7421 6.87138C32.5207 6.87138 32.291 6.92469 32.0532 7.0313C31.8236 7.13791 31.6022 7.28552 31.3889 7.47414L27.7477 10.6152C27.2166 11.0734 26.9113 11.74 26.9113 12.4414Z" fill="#202328"/>
<path d="M26.9113 12.4414V17.5045C26.9113 18.2046 27.2155 18.8701 27.7448 19.3282L31.3889 22.4817C31.6022 22.6622 31.8236 22.8098 32.0532 22.9246C32.291 23.0312 32.5207 23.0845 32.7421 23.0845C33.2177 23.0845 33.5991 22.9287 33.8861 22.6171C34.1813 22.2972 34.3289 21.8831 34.3289 21.3746V8.58126C34.3289 8.07281 34.1813 7.66276 33.8861 7.35113C33.5991 7.0313 33.2177 6.87138 32.7421 6.87138C32.5207 6.87138 32.291 6.92469 32.0532 7.0313C31.8236 7.13791 31.6022 7.28552 31.3889 7.47414L27.7477 10.6152C27.2166 11.0734 26.9113 11.74 26.9113 12.4414Z" fill="url(#paint1_linear_5970_3325)" fill-opacity="0.3"/>
<path d="M26.9113 12.4414V17.5045C26.9113 18.2046 27.2155 18.8701 27.7448 19.3282L31.3889 22.4817C31.6022 22.6622 31.8236 22.8098 32.0532 22.9246C32.291 23.0312 32.5207 23.0845 32.7421 23.0845C33.2177 23.0845 33.5991 22.9287 33.8861 22.6171C34.1813 22.2972 34.3289 21.8831 34.3289 21.3746V8.58126C34.3289 8.07281 34.1813 7.66276 33.8861 7.35113C33.5991 7.0313 33.2177 6.87138 32.7421 6.87138C32.5207 6.87138 32.291 6.92469 32.0532 7.0313C31.8236 7.13791 31.6022 7.28552 31.3889 7.47414L27.7477 10.6152C27.2166 11.0734 26.9113 11.74 26.9113 12.4414Z" fill="#252525"/>
<path d="M5.34145 9.20693C5.24012 9.15166 5.13386 9.11423 5.02627 9.09356C5.09416 9.0069 5.16509 8.92246 5.23897 8.8404C5.75015 8.27267 6.45303 7.86686 7.85877 7.05525L10.5843 5.48166C11.99 4.67005 12.6929 4.26424 13.4402 4.1054C14.1014 3.96487 14.7847 3.96487 15.4459 4.1054C16.1931 4.26424 16.896 4.67005 18.3017 5.48166L20.9951 7.03669C21.0059 7.04286 21.0166 7.04905 21.0273 7.05526C22.4331 7.86687 23.136 8.27268 23.6471 8.84041C24.0994 9.34274 24.4411 9.93452 24.65 10.5774C24.8861 11.304 24.8861 12.1156 24.8861 13.7388V16.886C24.8861 18.5092 24.8861 19.3208 24.65 20.0474C24.4411 20.6903 24.0994 21.282 23.6471 21.7844C23.136 22.3521 22.4331 22.7579 21.0274 23.5695C21.0154 23.5764 21.0032 23.5834 20.9912 23.5903L18.3017 25.1431C16.896 25.9547 16.1931 26.3605 15.4459 26.5194C15.4151 26.5259 15.3844 26.5321 15.3536 26.538L15.3536 16.7441C15.3536 15.4644 14.6546 14.2869 13.5311 13.6741L5.34145 9.20693Z" fill="#202328"/>
<path d="M5.34145 9.20693C5.24012 9.15166 5.13386 9.11423 5.02627 9.09356C5.09416 9.0069 5.16509 8.92246 5.23897 8.8404C5.75015 8.27267 6.45303 7.86686 7.85877 7.05525L10.5843 5.48166C11.99 4.67005 12.6929 4.26424 13.4402 4.1054C14.1014 3.96487 14.7847 3.96487 15.4459 4.1054C16.1931 4.26424 16.896 4.67005 18.3017 5.48166L20.9951 7.03669C21.0059 7.04286 21.0166 7.04905 21.0273 7.05526C22.4331 7.86687 23.136 8.27268 23.6471 8.84041C24.0994 9.34274 24.4411 9.93452 24.65 10.5774C24.8861 11.304 24.8861 12.1156 24.8861 13.7388V16.886C24.8861 18.5092 24.8861 19.3208 24.65 20.0474C24.4411 20.6903 24.0994 21.282 23.6471 21.7844C23.136 22.3521 22.4331 22.7579 21.0274 23.5695C21.0154 23.5764 21.0032 23.5834 20.9912 23.5903L18.3017 25.1431C16.896 25.9547 16.1931 26.3605 15.4459 26.5194C15.4151 26.5259 15.3844 26.5321 15.3536 26.538L15.3536 16.7441C15.3536 15.4644 14.6546 14.2869 13.5311 13.6741L5.34145 9.20693Z" fill="url(#paint2_linear_5970_3325)" fill-opacity="0.3"/>
<path d="M5.34145 9.20693C5.24012 9.15166 5.13386 9.11423 5.02627 9.09356C5.09416 9.0069 5.16509 8.92246 5.23897 8.8404C5.75015 8.27267 6.45303 7.86686 7.85877 7.05525L10.5843 5.48166C11.99 4.67005 12.6929 4.26424 13.4402 4.1054C14.1014 3.96487 14.7847 3.96487 15.4459 4.1054C16.1931 4.26424 16.896 4.67005 18.3017 5.48166L20.9951 7.03669C21.0059 7.04286 21.0166 7.04905 21.0273 7.05526C22.4331 7.86687 23.136 8.27268 23.6471 8.84041C24.0994 9.34274 24.4411 9.93452 24.65 10.5774C24.8861 11.304 24.8861 12.1156 24.8861 13.7388V16.886C24.8861 18.5092 24.8861 19.3208 24.65 20.0474C24.4411 20.6903 24.0994 21.282 23.6471 21.7844C23.136 22.3521 22.4331 22.7579 21.0274 23.5695C21.0154 23.5764 21.0032 23.5834 20.9912 23.5903L18.3017 25.1431C16.896 25.9547 16.1931 26.3605 15.4459 26.5194C15.4151 26.5259 15.3844 26.5321 15.3536 26.538L15.3536 16.7441C15.3536 15.4644 14.6546 14.2869 13.5311 13.6741L5.34145 9.20693Z" fill="#252525"/>
<path d="M42.1726 21.992C41.8807 21.992 41.6441 21.7553 41.6441 21.4634V8.89637C41.6441 8.60445 41.8807 8.36781 42.1726 8.36781H43.8793C44.1712 8.36781 44.4078 8.60446 44.4078 8.89637V18.9527C44.4078 19.2446 44.6445 19.4812 44.9364 19.4812H49.0565C49.3484 19.4812 49.585 19.7179 49.585 20.0098V21.4634C49.585 21.7553 49.3484 21.992 49.0565 21.992H42.1726Z" fill="#202328"/>
<path d="M42.1726 21.992C41.8807 21.992 41.6441 21.7553 41.6441 21.4634V8.89637C41.6441 8.60445 41.8807 8.36781 42.1726 8.36781H43.8793C44.1712 8.36781 44.4078 8.60446 44.4078 8.89637V18.9527C44.4078 19.2446 44.6445 19.4812 44.9364 19.4812H49.0565C49.3484 19.4812 49.585 19.7179 49.585 20.0098V21.4634C49.585 21.7553 49.3484 21.992 49.0565 21.992H42.1726Z" fill="url(#paint3_linear_5970_3325)" fill-opacity="0.3"/>
<path d="M42.1726 21.992C41.8807 21.992 41.6441 21.7553 41.6441 21.4634V8.89637C41.6441 8.60445 41.8807 8.36781 42.1726 8.36781H43.8793C44.1712 8.36781 44.4078 8.60446 44.4078 8.89637V18.9527C44.4078 19.2446 44.6445 19.4812 44.9364 19.4812H49.0565C49.3484 19.4812 49.585 19.7179 49.585 20.0098V21.4634C49.585 21.7553 49.3484 21.992 49.0565 21.992H42.1726Z" fill="#252525"/>
<path d="M54.3225 22.2839C52.3567 22.2839 51.0137 21.1551 51.0137 19.345C51.0137 17.8658 52.1621 16.7564 54.2641 16.4061L57.0119 15.9421C57.1559 15.9178 57.2614 15.7931 57.2614 15.647V15.647C57.2614 14.6155 56.4829 13.9537 55.354 13.9537C54.5968 13.9537 53.9746 14.2359 53.4873 14.7126C53.2754 14.9199 52.9415 14.9736 52.7059 14.7937L51.7352 14.0527C51.5072 13.8786 51.4574 13.5517 51.6513 13.3402C52.5387 12.3718 53.8483 11.7933 55.4319 11.7933C58.2735 11.7933 59.7332 13.4866 59.7332 15.647V21.4634C59.7332 21.7553 59.4966 21.992 59.2046 21.992H57.6592C57.4395 21.992 57.2614 21.8139 57.2614 21.5942V21.5942C57.2614 21.4074 57.0113 21.3103 56.8662 21.4279C56.2099 21.9598 55.2597 22.2839 54.3225 22.2839ZM53.4661 19.2282C53.4661 19.89 53.9916 20.3181 54.8285 20.3181C55.8951 20.3181 56.6837 19.849 57.1778 19.1406C57.2345 19.0594 57.2614 18.9616 57.2614 18.8625V17.9442C57.2614 17.7809 57.1148 17.6567 56.9537 17.6835L54.9258 18.0215C53.8943 18.1967 53.4661 18.6249 53.4661 19.2282Z" fill="#202328"/>
<path d="M54.3225 22.2839C52.3567 22.2839 51.0137 21.1551 51.0137 19.345C51.0137 17.8658 52.1621 16.7564 54.2641 16.4061L57.0119 15.9421C57.1559 15.9178 57.2614 15.7931 57.2614 15.647V15.647C57.2614 14.6155 56.4829 13.9537 55.354 13.9537C54.5968 13.9537 53.9746 14.2359 53.4873 14.7126C53.2754 14.9199 52.9415 14.9736 52.7059 14.7937L51.7352 14.0527C51.5072 13.8786 51.4574 13.5517 51.6513 13.3402C52.5387 12.3718 53.8483 11.7933 55.4319 11.7933C58.2735 11.7933 59.7332 13.4866 59.7332 15.647V21.4634C59.7332 21.7553 59.4966 21.992 59.2046 21.992H57.6592C57.4395 21.992 57.2614 21.8139 57.2614 21.5942V21.5942C57.2614 21.4074 57.0113 21.3103 56.8662 21.4279C56.2099 21.9598 55.2597 22.2839 54.3225 22.2839ZM53.4661 19.2282C53.4661 19.89 53.9916 20.3181 54.8285 20.3181C55.8951 20.3181 56.6837 19.849 57.1778 19.1406C57.2345 19.0594 57.2614 18.9616 57.2614 18.8625V17.9442C57.2614 17.7809 57.1148 17.6567 56.9537 17.6835L54.9258 18.0215C53.8943 18.1967 53.4661 18.6249 53.4661 19.2282Z" fill="url(#paint4_linear_5970_3325)" fill-opacity="0.3"/>
<path d="M54.3225 22.2839C52.3567 22.2839 51.0137 21.1551 51.0137 19.345C51.0137 17.8658 52.1621 16.7564 54.2641 16.4061L57.0119 15.9421C57.1559 15.9178 57.2614 15.7931 57.2614 15.647V15.647C57.2614 14.6155 56.4829 13.9537 55.354 13.9537C54.5968 13.9537 53.9746 14.2359 53.4873 14.7126C53.2754 14.9199 52.9415 14.9736 52.7059 14.7937L51.7352 14.0527C51.5072 13.8786 51.4574 13.5517 51.6513 13.3402C52.5387 12.3718 53.8483 11.7933 55.4319 11.7933C58.2735 11.7933 59.7332 13.4866 59.7332 15.647V21.4634C59.7332 21.7553 59.4966 21.992 59.2046 21.992H57.6592C57.4395 21.992 57.2614 21.8139 57.2614 21.5942V21.5942C57.2614 21.4074 57.0113 21.3103 56.8662 21.4279C56.2099 21.9598 55.2597 22.2839 54.3225 22.2839ZM53.4661 19.2282C53.4661 19.89 53.9916 20.3181 54.8285 20.3181C55.8951 20.3181 56.6837 19.849 57.1778 19.1406C57.2345 19.0594 57.2614 18.9616 57.2614 18.8625V17.9442C57.2614 17.7809 57.1148 17.6567 56.9537 17.6835L54.9258 18.0215C53.8943 18.1967 53.4661 18.6249 53.4661 19.2282Z" fill="#252525"/>
<path d="M61.615 20.4798C61.4201 20.2758 61.4422 19.9537 61.6496 19.7624L62.8612 18.6448C63.0887 18.4351 63.4451 18.467 63.6604 18.6893C64.4215 19.4754 65.354 19.9289 66.3006 19.9289C67.3906 19.9289 68.0523 19.345 68.0523 18.3718C68.0523 15.8611 61.863 16.5423 61.863 11.9296C61.863 9.76915 63.6536 7.97855 66.2617 7.97855C68.1118 7.97855 69.5631 8.72827 70.6879 9.89556C70.8856 10.1008 70.8624 10.4269 70.6509 10.618L69.4293 11.7221C69.201 11.9285 68.847 11.8949 68.641 11.6661C67.9369 10.8845 67.1583 10.392 66.2812 10.392C65.308 10.392 64.6657 11.0148 64.6657 11.8322C64.6657 14.3041 70.855 13.6034 70.855 18.2745C70.8161 20.8437 68.8308 22.3812 66.3201 22.3812C64.2311 22.3812 62.7702 21.6888 61.615 20.4798Z" fill="#202328"/>
<path d="M61.615 20.4798C61.4201 20.2758 61.4422 19.9537 61.6496 19.7624L62.8612 18.6448C63.0887 18.4351 63.4451 18.467 63.6604 18.6893C64.4215 19.4754 65.354 19.9289 66.3006 19.9289C67.3906 19.9289 68.0523 19.345 68.0523 18.3718C68.0523 15.8611 61.863 16.5423 61.863 11.9296C61.863 9.76915 63.6536 7.97855 66.2617 7.97855C68.1118 7.97855 69.5631 8.72827 70.6879 9.89556C70.8856 10.1008 70.8624 10.4269 70.6509 10.618L69.4293 11.7221C69.201 11.9285 68.847 11.8949 68.641 11.6661C67.9369 10.8845 67.1583 10.392 66.2812 10.392C65.308 10.392 64.6657 11.0148 64.6657 11.8322C64.6657 14.3041 70.855 13.6034 70.855 18.2745C70.8161 20.8437 68.8308 22.3812 66.3201 22.3812C64.2311 22.3812 62.7702 21.6888 61.615 20.4798Z" fill="url(#paint5_linear_5970_3325)" fill-opacity="0.3"/>
<path d="M61.615 20.4798C61.4201 20.2758 61.4422 19.9537 61.6496 19.7624L62.8612 18.6448C63.0887 18.4351 63.4451 18.467 63.6604 18.6893C64.4215 19.4754 65.354 19.9289 66.3006 19.9289C67.3906 19.9289 68.0523 19.345 68.0523 18.3718C68.0523 15.8611 61.863 16.5423 61.863 11.9296C61.863 9.76915 63.6536 7.97855 66.2617 7.97855C68.1118 7.97855 69.5631 8.72827 70.6879 9.89556C70.8856 10.1008 70.8624 10.4269 70.6509 10.618L69.4293 11.7221C69.201 11.9285 68.847 11.8949 68.641 11.6661C67.9369 10.8845 67.1583 10.392 66.2812 10.392C65.308 10.392 64.6657 11.0148 64.6657 11.8322C64.6657 14.3041 70.855 13.6034 70.855 18.2745C70.8161 20.8437 68.8308 22.3812 66.3201 22.3812C64.2311 22.3812 62.7702 21.6888 61.615 20.4798Z" fill="#252525"/>
<path d="M79.2618 17.749V12.7111C79.2618 12.4192 79.4985 12.1826 79.7904 12.1826H81.2245C81.5165 12.1826 81.7531 12.4192 81.7531 12.7111V17.6322C81.7531 20.5712 80.0404 22.3812 77.1598 22.3812C74.2793 22.3812 72.586 20.5712 72.586 17.6322V12.7111C72.586 12.4192 72.8226 12.1826 73.1145 12.1826H74.5487C74.8406 12.1826 75.0773 12.4192 75.0773 12.7111V17.749C75.0773 19.1698 75.8169 20.0457 77.1793 20.0457C78.5222 20.0457 79.2618 19.1698 79.2618 17.749Z" fill="#202328"/>
<path d="M79.2618 17.749V12.7111C79.2618 12.4192 79.4985 12.1826 79.7904 12.1826H81.2245C81.5165 12.1826 81.7531 12.4192 81.7531 12.7111V17.6322C81.7531 20.5712 80.0404 22.3812 77.1598 22.3812C74.2793 22.3812 72.586 20.5712 72.586 17.6322V12.7111C72.586 12.4192 72.8226 12.1826 73.1145 12.1826H74.5487C74.8406 12.1826 75.0773 12.4192 75.0773 12.7111V17.749C75.0773 19.1698 75.8169 20.0457 77.1793 20.0457C78.5222 20.0457 79.2618 19.1698 79.2618 17.749Z" fill="url(#paint6_linear_5970_3325)" fill-opacity="0.3"/>
<path d="M79.2618 17.749V12.7111C79.2618 12.4192 79.4985 12.1826 79.7904 12.1826H81.2245C81.5165 12.1826 81.7531 12.4192 81.7531 12.7111V17.6322C81.7531 20.5712 80.0404 22.3812 77.1598 22.3812C74.2793 22.3812 72.586 20.5712 72.586 17.6322V12.7111C72.586 12.4192 72.8226 12.1826 73.1145 12.1826H74.5487C74.8406 12.1826 75.0773 12.4192 75.0773 12.7111V17.749C75.0773 19.1698 75.8169 20.0457 77.1793 20.0457C78.5222 20.0457 79.2618 19.1698 79.2618 17.749Z" fill="#252525"/>
<path d="M85.1511 10.4698C84.2753 10.4698 83.5357 9.73023 83.5357 8.85439C83.5357 7.97855 84.2753 7.23895 85.1511 7.23895C86.0269 7.23895 86.7471 7.97855 86.7471 8.85439C86.7471 9.73023 86.0269 10.4698 85.1511 10.4698ZM84.434 21.992C84.1421 21.992 83.9055 21.7553 83.9055 21.4634V12.7111C83.9055 12.4192 84.1421 12.1826 84.434 12.1826H85.8487C86.1406 12.1826 86.3773 12.4192 86.3773 12.7111V21.4634C86.3773 21.7553 86.1406 21.992 85.8487 21.992H84.434Z" fill="#202328"/>
<path d="M85.1511 10.4698C84.2753 10.4698 83.5357 9.73023 83.5357 8.85439C83.5357 7.97855 84.2753 7.23895 85.1511 7.23895C86.0269 7.23895 86.7471 7.97855 86.7471 8.85439C86.7471 9.73023 86.0269 10.4698 85.1511 10.4698ZM84.434 21.992C84.1421 21.992 83.9055 21.7553 83.9055 21.4634V12.7111C83.9055 12.4192 84.1421 12.1826 84.434 12.1826H85.8487C86.1406 12.1826 86.3773 12.4192 86.3773 12.7111V21.4634C86.3773 21.7553 86.1406 21.992 85.8487 21.992H84.434Z" fill="url(#paint7_linear_5970_3325)" fill-opacity="0.3"/>
<path d="M85.1511 10.4698C84.2753 10.4698 83.5357 9.73023 83.5357 8.85439C83.5357 7.97855 84.2753 7.23895 85.1511 7.23895C86.0269 7.23895 86.7471 7.97855 86.7471 8.85439C86.7471 9.73023 86.0269 10.4698 85.1511 10.4698ZM84.434 21.992C84.1421 21.992 83.9055 21.7553 83.9055 21.4634V12.7111C83.9055 12.4192 84.1421 12.1826 84.434 12.1826H85.8487C86.1406 12.1826 86.3773 12.4192 86.3773 12.7111V21.4634C86.3773 21.7553 86.1406 21.992 85.8487 21.992H84.434Z" fill="#252525"/>
<path d="M89.3804 18.4108V14.9299C89.3804 14.638 89.1437 14.4014 88.8518 14.4014H88.0794C87.7875 14.4014 87.5508 14.1647 87.5508 13.8728V12.7111C87.5508 12.4192 87.7875 12.1826 88.0794 12.1826H88.8518C89.1437 12.1826 89.3804 11.9459 89.3804 11.654V10.2588C89.3804 9.96687 89.617 9.73023 89.9089 9.73023H91.3431C91.635 9.73023 91.8716 9.96687 91.8716 10.2588V11.654C91.8716 11.9459 92.1083 12.1826 92.4002 12.1826H94.3404C94.6323 12.1826 94.869 12.4192 94.869 12.7111V13.8728C94.869 14.1647 94.6323 14.4014 94.3404 14.4014H92.4002C92.1083 14.4014 91.8716 14.638 91.8716 14.9299V18.4108C91.8716 19.5007 92.4555 19.9289 93.4287 19.9289C93.6929 19.9289 93.922 19.9172 94.1227 19.8949C94.4967 19.8534 94.8884 20.1278 94.8884 20.5041V21.5303C94.8884 21.7399 94.7656 21.9334 94.5654 21.9955C94.1445 22.1261 93.6451 22.1866 93.0005 22.1866C90.5481 22.1866 89.3804 20.8047 89.3804 18.4108Z" fill="#202328"/>
<path d="M89.3804 18.4108V14.9299C89.3804 14.638 89.1437 14.4014 88.8518 14.4014H88.0794C87.7875 14.4014 87.5508 14.1647 87.5508 13.8728V12.7111C87.5508 12.4192 87.7875 12.1826 88.0794 12.1826H88.8518C89.1437 12.1826 89.3804 11.9459 89.3804 11.654V10.2588C89.3804 9.96687 89.617 9.73023 89.9089 9.73023H91.3431C91.635 9.73023 91.8716 9.96687 91.8716 10.2588V11.654C91.8716 11.9459 92.1083 12.1826 92.4002 12.1826H94.3404C94.6323 12.1826 94.869 12.4192 94.869 12.7111V13.8728C94.869 14.1647 94.6323 14.4014 94.3404 14.4014H92.4002C92.1083 14.4014 91.8716 14.638 91.8716 14.9299V18.4108C91.8716 19.5007 92.4555 19.9289 93.4287 19.9289C93.6929 19.9289 93.922 19.9172 94.1227 19.8949C94.4967 19.8534 94.8884 20.1278 94.8884 20.5041V21.5303C94.8884 21.7399 94.7656 21.9334 94.5654 21.9955C94.1445 22.1261 93.6451 22.1866 93.0005 22.1866C90.5481 22.1866 89.3804 20.8047 89.3804 18.4108Z" fill="url(#paint8_linear_5970_3325)" fill-opacity="0.3"/>
<path d="M89.3804 18.4108V14.9299C89.3804 14.638 89.1437 14.4014 88.8518 14.4014H88.0794C87.7875 14.4014 87.5508 14.1647 87.5508 13.8728V12.7111C87.5508 12.4192 87.7875 12.1826 88.0794 12.1826H88.8518C89.1437 12.1826 89.3804 11.9459 89.3804 11.654V10.2588C89.3804 9.96687 89.617 9.73023 89.9089 9.73023H91.3431C91.635 9.73023 91.8716 9.96687 91.8716 10.2588V11.654C91.8716 11.9459 92.1083 12.1826 92.4002 12.1826H94.3404C94.6323 12.1826 94.869 12.4192 94.869 12.7111V13.8728C94.869 14.1647 94.6323 14.4014 94.3404 14.4014H92.4002C92.1083 14.4014 91.8716 14.638 91.8716 14.9299V18.4108C91.8716 19.5007 92.4555 19.9289 93.4287 19.9289C93.6929 19.9289 93.922 19.9172 94.1227 19.8949C94.4967 19.8534 94.8884 20.1278 94.8884 20.5041V21.5303C94.8884 21.7399 94.7656 21.9334 94.5654 21.9955C94.1445 22.1261 93.6451 22.1866 93.0005 22.1866C90.5481 22.1866 89.3804 20.8047 89.3804 18.4108Z" fill="#252525"/>
<path d="M104.937 20.0772C105.161 20.2547 105.205 20.581 105.01 20.7898C104.081 21.7826 102.7 22.3812 101.058 22.3812C97.5737 22.3812 95.6079 19.9483 95.6079 17.0873C95.6079 14.1873 97.4375 11.7933 100.649 11.7933C103.374 11.7933 105.164 13.6423 105.164 16.2114C105.164 16.5636 105.132 16.8995 105.088 17.1824C105.05 17.4248 104.835 17.5933 104.59 17.5933H98.4383C98.2791 17.5933 98.1553 17.7338 98.1856 17.8901C98.4992 19.5033 99.5865 20.1624 101.038 20.1624C101.891 20.1624 102.657 19.8659 103.2 19.391C103.423 19.1951 103.761 19.1468 103.994 19.3312L104.937 20.0772ZM100.59 13.8175C99.4333 13.8175 98.6344 14.4037 98.298 15.4868C98.2481 15.6473 98.3742 15.8027 98.5422 15.8027H102.457C102.607 15.8027 102.728 15.6774 102.703 15.5295C102.554 14.6358 101.845 13.8175 100.59 13.8175Z" fill="#202328"/>
<path d="M104.937 20.0772C105.161 20.2547 105.205 20.581 105.01 20.7898C104.081 21.7826 102.7 22.3812 101.058 22.3812C97.5737 22.3812 95.6079 19.9483 95.6079 17.0873C95.6079 14.1873 97.4375 11.7933 100.649 11.7933C103.374 11.7933 105.164 13.6423 105.164 16.2114C105.164 16.5636 105.132 16.8995 105.088 17.1824C105.05 17.4248 104.835 17.5933 104.59 17.5933H98.4383C98.2791 17.5933 98.1553 17.7338 98.1856 17.8901C98.4992 19.5033 99.5865 20.1624 101.038 20.1624C101.891 20.1624 102.657 19.8659 103.2 19.391C103.423 19.1951 103.761 19.1468 103.994 19.3312L104.937 20.0772ZM100.59 13.8175C99.4333 13.8175 98.6344 14.4037 98.298 15.4868C98.2481 15.6473 98.3742 15.8027 98.5422 15.8027H102.457C102.607 15.8027 102.728 15.6774 102.703 15.5295C102.554 14.6358 101.845 13.8175 100.59 13.8175Z" fill="url(#paint9_linear_5970_3325)" fill-opacity="0.3"/>
<path d="M104.937 20.0772C105.161 20.2547 105.205 20.581 105.01 20.7898C104.081 21.7826 102.7 22.3812 101.058 22.3812C97.5737 22.3812 95.6079 19.9483 95.6079 17.0873C95.6079 14.1873 97.4375 11.7933 100.649 11.7933C103.374 11.7933 105.164 13.6423 105.164 16.2114C105.164 16.5636 105.132 16.8995 105.088 17.1824C105.05 17.4248 104.835 17.5933 104.59 17.5933H98.4383C98.2791 17.5933 98.1553 17.7338 98.1856 17.8901C98.4992 19.5033 99.5865 20.1624 101.038 20.1624C101.891 20.1624 102.657 19.8659 103.2 19.391C103.423 19.1951 103.761 19.1468 103.994 19.3312L104.937 20.0772ZM100.59 13.8175C99.4333 13.8175 98.6344 14.4037 98.298 15.4868C98.2481 15.6473 98.3742 15.8027 98.5422 15.8027H102.457C102.607 15.8027 102.728 15.6774 102.703 15.5295C102.554 14.6358 101.845 13.8175 100.59 13.8175Z" fill="#252525"/>
<path d="M112.698 21.992C112.406 21.992 112.169 21.7553 112.169 21.4634V8.89637C112.169 8.60445 112.406 8.36781 112.698 8.36781H114.207C114.392 8.36781 114.563 8.46433 114.659 8.62236L118.444 14.8655C118.547 15.0352 118.793 15.0352 118.896 14.8655L122.681 8.62236C122.777 8.46433 122.948 8.36781 123.133 8.36781H124.642C124.934 8.36781 125.171 8.60446 125.171 8.89637V21.4634C125.171 21.7553 124.934 21.992 124.642 21.992H123.87C123.578 21.992 123.341 21.7553 123.341 21.4634V11.7599C123.341 11.4929 122.99 11.3943 122.851 11.6221L119.525 17.0678C119.429 17.225 119.258 17.3208 119.074 17.3208H118.266C118.082 17.3208 117.911 17.225 117.815 17.0678L114.489 11.6221C114.349 11.3943 113.999 11.4929 113.999 11.7599V21.4634C113.999 21.7553 113.762 21.992 113.47 21.992H112.698Z" fill="#202328"/>
<path d="M112.698 21.992C112.406 21.992 112.169 21.7553 112.169 21.4634V8.89637C112.169 8.60445 112.406 8.36781 112.698 8.36781H114.207C114.392 8.36781 114.563 8.46433 114.659 8.62236L118.444 14.8655C118.547 15.0352 118.793 15.0352 118.896 14.8655L122.681 8.62236C122.777 8.46433 122.948 8.36781 123.133 8.36781H124.642C124.934 8.36781 125.171 8.60446 125.171 8.89637V21.4634C125.171 21.7553 124.934 21.992 124.642 21.992H123.87C123.578 21.992 123.341 21.7553 123.341 21.4634V11.7599C123.341 11.4929 122.99 11.3943 122.851 11.6221L119.525 17.0678C119.429 17.225 119.258 17.3208 119.074 17.3208H118.266C118.082 17.3208 117.911 17.225 117.815 17.0678L114.489 11.6221C114.349 11.3943 113.999 11.4929 113.999 11.7599V21.4634C113.999 21.7553 113.762 21.992 113.47 21.992H112.698Z" fill="url(#paint10_linear_5970_3325)" fill-opacity="0.3"/>
<path d="M112.698 21.992C112.406 21.992 112.169 21.7553 112.169 21.4634V8.89637C112.169 8.60445 112.406 8.36781 112.698 8.36781H114.207C114.392 8.36781 114.563 8.46433 114.659 8.62236L118.444 14.8655C118.547 15.0352 118.793 15.0352 118.896 14.8655L122.681 8.62236C122.777 8.46433 122.948 8.36781 123.133 8.36781H124.642C124.934 8.36781 125.171 8.60446 125.171 8.89637V21.4634C125.171 21.7553 124.934 21.992 124.642 21.992H123.87C123.578 21.992 123.341 21.7553 123.341 21.4634V11.7599C123.341 11.4929 122.99 11.3943 122.851 11.6221L119.525 17.0678C119.429 17.225 119.258 17.3208 119.074 17.3208H118.266C118.082 17.3208 117.911 17.225 117.815 17.0678L114.489 11.6221C114.349 11.3943 113.999 11.4929 113.999 11.7599V21.4634C113.999 21.7553 113.762 21.992 113.47 21.992H112.698Z" fill="#252525"/>
<path d="M136.902 20.0585C137.129 20.2352 137.175 20.5635 136.98 20.7748C136.061 21.7688 134.73 22.3812 133.107 22.3812C129.798 22.3812 127.755 19.9483 127.755 17.0873C127.755 14.1094 129.662 11.7933 132.698 11.7933C135.365 11.7933 137.097 13.6618 137.097 16.0752C137.097 16.289 137.079 16.4968 137.054 16.686C137.02 16.933 136.802 17.1067 136.553 17.1067H129.719C129.57 17.1067 129.45 17.2297 129.461 17.3778C129.624 19.5703 131.087 20.8826 133.107 20.8826C134.162 20.8826 135.081 20.4767 135.73 19.8341C135.942 19.6246 136.279 19.5738 136.514 19.7567L136.902 20.0585ZM132.659 13.1947C131.147 13.1947 130.061 14.0304 129.641 15.5262C129.596 15.6875 129.722 15.8416 129.889 15.8416H135.167C135.318 15.8416 135.439 15.7164 135.42 15.5674C135.254 14.2514 134.28 13.1947 132.659 13.1947Z" fill="#202328"/>
<path d="M136.902 20.0585C137.129 20.2352 137.175 20.5635 136.98 20.7748C136.061 21.7688 134.73 22.3812 133.107 22.3812C129.798 22.3812 127.755 19.9483 127.755 17.0873C127.755 14.1094 129.662 11.7933 132.698 11.7933C135.365 11.7933 137.097 13.6618 137.097 16.0752C137.097 16.289 137.079 16.4968 137.054 16.686C137.02 16.933 136.802 17.1067 136.553 17.1067H129.719C129.57 17.1067 129.45 17.2297 129.461 17.3778C129.624 19.5703 131.087 20.8826 133.107 20.8826C134.162 20.8826 135.081 20.4767 135.73 19.8341C135.942 19.6246 136.279 19.5738 136.514 19.7567L136.902 20.0585ZM132.659 13.1947C131.147 13.1947 130.061 14.0304 129.641 15.5262C129.596 15.6875 129.722 15.8416 129.889 15.8416H135.167C135.318 15.8416 135.439 15.7164 135.42 15.5674C135.254 14.2514 134.28 13.1947 132.659 13.1947Z" fill="url(#paint11_linear_5970_3325)" fill-opacity="0.3"/>
<path d="M136.902 20.0585C137.129 20.2352 137.175 20.5635 136.98 20.7748C136.061 21.7688 134.73 22.3812 133.107 22.3812C129.798 22.3812 127.755 19.9483 127.755 17.0873C127.755 14.1094 129.662 11.7933 132.698 11.7933C135.365 11.7933 137.097 13.6618 137.097 16.0752C137.097 16.289 137.079 16.4968 137.054 16.686C137.02 16.933 136.802 17.1067 136.553 17.1067H129.719C129.57 17.1067 129.45 17.2297 129.461 17.3778C129.624 19.5703 131.087 20.8826 133.107 20.8826C134.162 20.8826 135.081 20.4767 135.73 19.8341C135.942 19.6246 136.279 19.5738 136.514 19.7567L136.902 20.0585ZM132.659 13.1947C131.147 13.1947 130.061 14.0304 129.641 15.5262C129.596 15.6875 129.722 15.8416 129.889 15.8416H135.167C135.318 15.8416 135.439 15.7164 135.42 15.5674C135.254 14.2514 134.28 13.1947 132.659 13.1947Z" fill="#252525"/>
<path d="M147.784 20.0585C148.011 20.2352 148.057 20.5635 147.862 20.7748C146.943 21.7688 145.612 22.3812 143.989 22.3812C140.68 22.3812 138.637 19.9483 138.637 17.0873C138.637 14.1094 140.544 11.7933 143.58 11.7933C146.247 11.7933 147.979 13.6618 147.979 16.0752C147.979 16.289 147.961 16.4968 147.936 16.686C147.902 16.933 147.684 17.1067 147.435 17.1067H140.601C140.452 17.1067 140.332 17.2297 140.343 17.3778C140.506 19.5703 141.969 20.8826 143.989 20.8826C145.044 20.8826 145.963 20.4767 146.612 19.8341C146.824 19.6246 147.161 19.5739 147.396 19.7567L147.784 20.0585ZM143.541 13.1947C142.029 13.1947 140.943 14.0304 140.523 15.5262C140.478 15.6875 140.604 15.8416 140.771 15.8416H146.049C146.199 15.8416 146.32 15.7164 146.302 15.5674C146.136 14.2514 145.162 13.1947 143.541 13.1947Z" fill="#202328"/>
<path d="M147.784 20.0585C148.011 20.2352 148.057 20.5635 147.862 20.7748C146.943 21.7688 145.612 22.3812 143.989 22.3812C140.68 22.3812 138.637 19.9483 138.637 17.0873C138.637 14.1094 140.544 11.7933 143.58 11.7933C146.247 11.7933 147.979 13.6618 147.979 16.0752C147.979 16.289 147.961 16.4968 147.936 16.686C147.902 16.933 147.684 17.1067 147.435 17.1067H140.601C140.452 17.1067 140.332 17.2297 140.343 17.3778C140.506 19.5703 141.969 20.8826 143.989 20.8826C145.044 20.8826 145.963 20.4767 146.612 19.8341C146.824 19.6246 147.161 19.5739 147.396 19.7567L147.784 20.0585ZM143.541 13.1947C142.029 13.1947 140.943 14.0304 140.523 15.5262C140.478 15.6875 140.604 15.8416 140.771 15.8416H146.049C146.199 15.8416 146.32 15.7164 146.302 15.5674C146.136 14.2514 145.162 13.1947 143.541 13.1947Z" fill="url(#paint12_linear_5970_3325)" fill-opacity="0.3"/>
<path d="M147.784 20.0585C148.011 20.2352 148.057 20.5635 147.862 20.7748C146.943 21.7688 145.612 22.3812 143.989 22.3812C140.68 22.3812 138.637 19.9483 138.637 17.0873C138.637 14.1094 140.544 11.7933 143.58 11.7933C146.247 11.7933 147.979 13.6618 147.979 16.0752C147.979 16.289 147.961 16.4968 147.936 16.686C147.902 16.933 147.684 17.1067 147.435 17.1067H140.601C140.452 17.1067 140.332 17.2297 140.343 17.3778C140.506 19.5703 141.969 20.8826 143.989 20.8826C145.044 20.8826 145.963 20.4767 146.612 19.8341C146.824 19.6246 147.161 19.5739 147.396 19.7567L147.784 20.0585ZM143.541 13.1947C142.029 13.1947 140.943 14.0304 140.523 15.5262C140.478 15.6875 140.604 15.8416 140.771 15.8416H146.049C146.199 15.8416 146.32 15.7164 146.302 15.5674C146.136 14.2514 145.162 13.1947 143.541 13.1947Z" fill="#252525"/>
<path d="M150.901 18.7027V14.2098C150.901 13.9179 150.664 13.6812 150.372 13.6812H149.58C149.288 13.6812 149.052 13.4446 149.052 13.1527V12.7111C149.052 12.4192 149.288 12.1826 149.58 12.1826H150.372C150.664 12.1826 150.901 11.9459 150.901 11.654V10.2588C150.901 9.96687 151.137 9.73023 151.429 9.73023H152.046C152.338 9.73023 152.575 9.96687 152.575 10.2588V11.654C152.575 11.9459 152.811 12.1826 153.103 12.1826H155.452C155.744 12.1826 155.981 12.4192 155.981 12.7111V13.1527C155.981 13.4446 155.744 13.6812 155.452 13.6812H153.103C152.811 13.6812 152.575 13.9179 152.575 14.2098V18.7027C152.575 20.2403 153.353 20.6685 154.54 20.6685C154.98 20.6685 155.328 20.6321 155.622 20.5592C155.806 20.5139 156 20.6439 156 20.833V21.5617C156 21.7751 155.873 21.9715 155.668 22.0302C155.282 22.1404 154.846 22.1866 154.307 22.1866C152.127 22.1866 150.901 21.0967 150.901 18.7027Z" fill="#202328"/>
<path d="M150.901 18.7027V14.2098C150.901 13.9179 150.664 13.6812 150.372 13.6812H149.58C149.288 13.6812 149.052 13.4446 149.052 13.1527V12.7111C149.052 12.4192 149.288 12.1826 149.58 12.1826H150.372C150.664 12.1826 150.901 11.9459 150.901 11.654V10.2588C150.901 9.96687 151.137 9.73023 151.429 9.73023H152.046C152.338 9.73023 152.575 9.96687 152.575 10.2588V11.654C152.575 11.9459 152.811 12.1826 153.103 12.1826H155.452C155.744 12.1826 155.981 12.4192 155.981 12.7111V13.1527C155.981 13.4446 155.744 13.6812 155.452 13.6812H153.103C152.811 13.6812 152.575 13.9179 152.575 14.2098V18.7027C152.575 20.2403 153.353 20.6685 154.54 20.6685C154.98 20.6685 155.328 20.6321 155.622 20.5592C155.806 20.5139 156 20.6439 156 20.833V21.5617C156 21.7751 155.873 21.9715 155.668 22.0302C155.282 22.1404 154.846 22.1866 154.307 22.1866C152.127 22.1866 150.901 21.0967 150.901 18.7027Z" fill="url(#paint13_linear_5970_3325)" fill-opacity="0.3"/>
<path d="M150.901 18.7027V14.2098C150.901 13.9179 150.664 13.6812 150.372 13.6812H149.58C149.288 13.6812 149.052 13.4446 149.052 13.1527V12.7111C149.052 12.4192 149.288 12.1826 149.58 12.1826H150.372C150.664 12.1826 150.901 11.9459 150.901 11.654V10.2588C150.901 9.96687 151.137 9.73023 151.429 9.73023H152.046C152.338 9.73023 152.575 9.96687 152.575 10.2588V11.654C152.575 11.9459 152.811 12.1826 153.103 12.1826H155.452C155.744 12.1826 155.981 12.4192 155.981 12.7111V13.1527C155.981 13.4446 155.744 13.6812 155.452 13.6812H153.103C152.811 13.6812 152.575 13.9179 152.575 14.2098V18.7027C152.575 20.2403 153.353 20.6685 154.54 20.6685C154.98 20.6685 155.328 20.6321 155.622 20.5592C155.806 20.5139 156 20.6439 156 20.833V21.5617C156 21.7751 155.873 21.9715 155.668 22.0302C155.282 22.1404 154.846 22.1866 154.307 22.1866C152.127 22.1866 150.901 21.0967 150.901 18.7027Z" fill="#252525"/>
<defs>
<linearGradient id="paint0_linear_5970_3325" x1="134.058" y1="8.24938" x2="134.058" y2="21.992" gradientUnits="userSpaceOnUse">
<stop stop-color="#C9191E" stop-opacity="0"/>
<stop offset="1" stop-color="#C9191E"/>
</linearGradient>
<linearGradient id="paint1_linear_5970_3325" x1="134.058" y1="8.24938" x2="134.058" y2="21.992" gradientUnits="userSpaceOnUse">
<stop stop-color="#C9191E" stop-opacity="0"/>
<stop offset="1" stop-color="#C9191E"/>
</linearGradient>
<linearGradient id="paint2_linear_5970_3325" x1="134.058" y1="8.24938" x2="134.058" y2="21.992" gradientUnits="userSpaceOnUse">
<stop stop-color="#C9191E" stop-opacity="0"/>
<stop offset="1" stop-color="#C9191E"/>
</linearGradient>
<linearGradient id="paint3_linear_5970_3325" x1="134.058" y1="8.24938" x2="134.058" y2="21.992" gradientUnits="userSpaceOnUse">
<stop stop-color="#C9191E" stop-opacity="0"/>
<stop offset="1" stop-color="#C9191E"/>
</linearGradient>
<linearGradient id="paint4_linear_5970_3325" x1="134.058" y1="8.24938" x2="134.058" y2="21.992" gradientUnits="userSpaceOnUse">
<stop stop-color="#C9191E" stop-opacity="0"/>
<stop offset="1" stop-color="#C9191E"/>
</linearGradient>
<linearGradient id="paint5_linear_5970_3325" x1="134.058" y1="8.24938" x2="134.058" y2="21.992" gradientUnits="userSpaceOnUse">
<stop stop-color="#C9191E" stop-opacity="0"/>
<stop offset="1" stop-color="#C9191E"/>
</linearGradient>
<linearGradient id="paint6_linear_5970_3325" x1="134.058" y1="8.24938" x2="134.058" y2="21.992" gradientUnits="userSpaceOnUse">
<stop stop-color="#C9191E" stop-opacity="0"/>
<stop offset="1" stop-color="#C9191E"/>
</linearGradient>
<linearGradient id="paint7_linear_5970_3325" x1="134.058" y1="8.24938" x2="134.058" y2="21.992" gradientUnits="userSpaceOnUse">
<stop stop-color="#C9191E" stop-opacity="0"/>
<stop offset="1" stop-color="#C9191E"/>
</linearGradient>
<linearGradient id="paint8_linear_5970_3325" x1="134.058" y1="8.24938" x2="134.058" y2="21.992" gradientUnits="userSpaceOnUse">
<stop stop-color="#C9191E" stop-opacity="0"/>
<stop offset="1" stop-color="#C9191E"/>
</linearGradient>
<linearGradient id="paint9_linear_5970_3325" x1="134.058" y1="8.24938" x2="134.058" y2="21.992" gradientUnits="userSpaceOnUse">
<stop stop-color="#C9191E" stop-opacity="0"/>
<stop offset="1" stop-color="#C9191E"/>
</linearGradient>
<linearGradient id="paint10_linear_5970_3325" x1="134.058" y1="8.24938" x2="134.058" y2="21.992" gradientUnits="userSpaceOnUse">
<stop stop-color="#C9191E" stop-opacity="0"/>
<stop offset="1" stop-color="#C9191E"/>
</linearGradient>
<linearGradient id="paint11_linear_5970_3325" x1="134.058" y1="8.24938" x2="134.058" y2="21.992" gradientUnits="userSpaceOnUse">
<stop stop-color="#C9191E" stop-opacity="0"/>
<stop offset="1" stop-color="#C9191E"/>
</linearGradient>
<linearGradient id="paint12_linear_5970_3325" x1="134.058" y1="8.24938" x2="134.058" y2="21.992" gradientUnits="userSpaceOnUse">
<stop stop-color="#C9191E" stop-opacity="0"/>
<stop offset="1" stop-color="#C9191E"/>
</linearGradient>
<linearGradient id="paint13_linear_5970_3325" x1="134.058" y1="8.24938" x2="134.058" y2="21.992" gradientUnits="userSpaceOnUse">
<stop stop-color="#C9191E" stop-opacity="0"/>
<stop offset="1" stop-color="#C9191E"/>
</linearGradient>
</defs>
</svg>
